# xmcd CD database file
#
# Track frame offsets:
#	150
#	24616
#	52773
#	62721
#	83253
#	106647
#	123801
#	144374
#	169143
#	193922
#	208065
#	237689
#
# Disc length: 3539 seconds
#
# Revision: 0
# Processed by: cddbd v1.5.2PL0 Copyright (c) Steve Scherf et al.
# Submitted via: CDex 1.51
#
DISCID=9a0dd10c
DTITLE=Area - Chernobyl 7991
DYEAR=1997
DGENRE=Jazz
TTITLE0=15.000 umbrellas (parte prima)
TTITLE1=15.000 umbrellas (parte seconda)
TTITLE2=Liquiescenza
TTITLE3=Wedding day
TTITLE4=Chernobyl 7991
TTITLE5=Fall down
TTITLE6=Il faut marteler
TTITLE7=Efstratios
TTITLE8=Mbira and Orizzonti
TTITLE9=Colchide
TTITLE10=Deriva (sogni sognati vendesi)
TTITLE11=Sedimentazioni
EXTD=YEAR: 1997
EXTT0=
EXTT1=
EXTT2=
EXTT3=
EXTT4=
EXTT5=
EXTT6=
EXTT7=
EXTT8=
EXTT9=
EXTT10=
EXTT11=
PLAYORDER=
